<svg width="533" height="61" viewBox="0 0 533 61" fill="none" xmlns="http://www.w3.org/2000/svg">
<path d="M14.7328 49V12.6364H39.2356V18.9751H22.421V27.6399H37.975V33.9787H22.421V42.6612H39.3066V49H14.7328ZM62.1982 27.8175V33.8189H45.6143V27.8175H62.1982ZM81.7294 12.1392C83.5997 12.1392 85.3989 12.4529 87.1271 13.0803C88.8672 13.7076 90.4179 14.7079 91.7791 16.081C93.1522 17.4541 94.2353 19.277 95.0284 21.5497C95.8333 23.8106 96.2417 26.5864 96.2536 29.8771C96.2536 32.9666 95.9044 35.7247 95.206 38.1513C94.5194 40.5661 93.531 42.6198 92.2408 44.3125C90.9505 46.0052 89.3939 47.2955 87.571 48.1832C85.7481 49.0592 83.7121 49.4972 81.4631 49.4972C79.0365 49.4972 76.8939 49.0296 75.0355 48.0945C73.1771 47.1475 71.6797 45.8632 70.5433 44.2415C69.4188 42.608 68.7382 40.7732 68.5014 38.7372H76.0831C76.379 40.063 77.0005 41.0928 77.9474 41.8267C78.8944 42.5488 80.0663 42.9098 81.4631 42.9098C83.8305 42.9098 85.6297 41.88 86.8608 39.8203C88.0919 37.7488 88.7133 34.9138 88.7251 31.3153H88.4766C87.9321 32.3807 87.1982 33.2981 86.2749 34.0675C85.3516 34.825 84.2921 35.411 83.0966 35.8253C81.9129 36.2396 80.6522 36.4467 79.3146 36.4467C77.1721 36.4467 75.2604 35.9437 73.5795 34.9375C71.8987 33.9313 70.5729 32.5464 69.6023 30.7827C68.6316 29.0189 68.1463 27.0066 68.1463 24.7457C68.1345 22.3073 68.6967 20.1352 69.8331 18.2294C70.9695 16.3236 72.5556 14.8321 74.5916 13.755C76.6394 12.666 79.0187 12.1274 81.7294 12.1392ZM81.7827 18.1761C80.5871 18.1761 79.5218 18.4602 78.5866 19.0284C77.6634 19.5966 76.9295 20.3601 76.3849 21.3189C75.8523 22.2777 75.5919 23.349 75.6037 24.5327C75.6037 25.7282 75.8641 26.8054 76.3849 27.7642C76.9176 28.7112 77.6397 29.4687 78.5511 30.0369C79.4744 30.5933 80.5279 30.8714 81.7116 30.8714C82.5994 30.8714 83.4221 30.7057 84.1797 30.3743C84.9373 30.0428 85.5942 29.5871 86.1506 29.0071C86.7188 28.4152 87.1626 27.7346 87.4822 26.9652C87.8018 26.1958 87.9616 25.379 87.9616 24.5149C87.9498 23.3667 87.6776 22.3132 87.1449 21.3544C86.6122 20.3956 85.8783 19.6262 84.9432 19.0462C84.008 18.4661 82.9545 18.1761 81.7827 18.1761ZM114.862 49.4972C112.352 49.4972 110.115 49.0355 108.15 48.1122C106.197 47.1889 104.646 45.9164 103.498 44.2947C102.35 42.6731 101.752 40.8146 101.705 38.7195H109.162C109.245 40.1281 109.837 41.2704 110.938 42.1463C112.038 43.0223 113.346 43.4602 114.862 43.4602C116.069 43.4602 117.134 43.1939 118.058 42.6612C118.993 42.1167 119.721 41.3651 120.241 40.4062C120.774 39.4356 121.04 38.3229 121.04 37.0682C121.04 35.7898 120.768 34.6652 120.224 33.6946C119.691 32.724 118.951 31.9664 118.004 31.4219C117.057 30.8774 115.974 30.5992 114.755 30.5874C113.69 30.5874 112.654 30.8063 111.648 31.2443C110.653 31.6823 109.878 32.2801 109.322 33.0376L102.486 31.8125L104.208 12.6364H126.438V18.9219H110.547L109.606 28.0305H109.819C110.458 27.1309 111.423 26.3852 112.713 25.7933C114.003 25.2015 115.447 24.9055 117.045 24.9055C119.235 24.9055 121.188 25.4205 122.905 26.4503C124.621 27.4801 125.977 28.8946 126.971 30.6939C127.965 32.4813 128.456 34.541 128.445 36.8729C128.456 39.3232 127.888 41.5012 126.74 43.407C125.604 45.3009 124.012 46.7924 121.964 47.8814C119.928 48.9586 117.56 49.4972 114.862 49.4972Z" fill="#FECC01"/>
<path d="M140.288 49H132.049L144.602 12.6364H154.51L167.045 49H158.807L149.698 20.946H149.414L140.288 49ZM139.773 34.7067H159.233V40.7081H139.773V34.7067ZM173.451 12.6364L182.24 40.2642H182.577L191.384 12.6364H199.907L187.371 49H177.464L164.91 12.6364H173.451ZM202.899 18.9751V12.6364H232.764V18.9751H221.631V49H214.031V18.9751H202.899ZM269.438 30.8182C269.438 34.7836 268.686 38.1572 267.183 40.9389C265.692 43.7206 263.656 45.8454 261.075 47.3132C258.506 48.7692 255.618 49.4972 252.41 49.4972C249.179 49.4972 246.279 48.7633 243.71 47.2955C241.141 45.8277 239.111 43.7029 237.62 40.9212C236.128 38.1394 235.383 34.7718 235.383 30.8182C235.383 26.8527 236.128 23.4792 237.62 20.6974C239.111 17.9157 241.141 15.7969 243.71 14.3409C246.279 12.8731 249.179 12.1392 252.41 12.1392C255.618 12.1392 258.506 12.8731 261.075 14.3409C263.656 15.7969 265.692 17.9157 267.183 20.6974C268.686 23.4792 269.438 26.8527 269.438 30.8182ZM261.643 30.8182C261.643 28.2495 261.259 26.0833 260.489 24.3196C259.732 22.5559 258.66 21.2183 257.275 20.3068C255.89 19.3954 254.269 18.9396 252.41 18.9396C250.552 18.9396 248.93 19.3954 247.545 20.3068C246.16 21.2183 245.083 22.5559 244.314 24.3196C243.556 26.0833 243.177 28.2495 243.177 30.8182C243.177 33.3868 243.556 35.553 244.314 37.3168C245.083 39.0805 246.16 40.4181 247.545 41.3295C248.93 42.241 250.552 42.6967 252.41 42.6967C254.269 42.6967 255.89 42.241 257.275 41.3295C258.66 40.4181 259.732 39.0805 260.489 37.3168C261.259 35.553 261.643 33.3868 261.643 30.8182ZM354.976 21.7273C354.798 19.2415 353.846 17.1996 352.117 15.6016C350.401 14.0036 348.134 13.2045 345.317 13.2045C343.47 13.2045 341.819 13.5597 340.363 14.2699C338.907 14.9801 337.759 15.9567 336.919 17.1996C336.078 18.4306 335.658 19.8452 335.658 21.4432C335.658 22.3665 335.812 23.2188 336.119 24C336.427 24.7812 336.895 25.4974 337.522 26.1484C338.161 26.7876 338.96 27.3677 339.919 27.8885C340.89 28.3975 342.026 28.8532 343.328 29.2557L347.448 30.5341C349.022 31.0194 350.383 31.5639 351.531 32.1676C352.68 32.7713 353.627 33.4519 354.372 34.2095C355.13 34.9553 355.692 35.7898 356.059 36.7131C356.426 37.6245 356.61 38.6425 356.61 39.767C356.61 41.661 356.124 43.3478 355.154 44.8274C354.183 46.3071 352.828 47.4671 351.088 48.3075C349.347 49.148 347.329 49.5682 345.033 49.5682C342.819 49.5682 340.884 49.1835 339.227 48.4141C337.57 47.6328 336.256 46.5616 335.285 45.2003C334.326 43.8272 333.788 42.2528 333.669 40.4773H334.806C334.924 42.0398 335.415 43.4188 336.279 44.6143C337.143 45.8099 338.315 46.745 339.795 47.4197C341.286 48.0945 343.032 48.4318 345.033 48.4318C347.116 48.4318 348.939 48.0708 350.502 47.3487C352.076 46.6148 353.295 45.5968 354.159 44.2947C355.035 42.9927 355.473 41.4834 355.473 39.767C355.473 38.465 355.189 37.3227 354.621 36.3402C354.053 35.3459 353.159 34.4699 351.94 33.7124C350.721 32.9548 349.128 32.2741 347.164 31.6705L343.044 30.392C340.191 29.4924 338.055 28.3028 336.634 26.8232C335.226 25.3435 334.521 23.5502 334.521 21.4432C334.521 19.6558 334.989 18.0578 335.924 16.6491C336.859 15.2287 338.138 14.1101 339.759 13.2933C341.393 12.4766 343.245 12.0682 345.317 12.0682C347.4 12.0682 349.229 12.4825 350.803 13.3111C352.378 14.1397 353.627 15.282 354.55 16.7379C355.473 18.1939 355.994 19.857 356.112 21.7273H354.976ZM366.131 49V12.6364H385.52V13.7727H367.267V30.25H384.455V31.3864H367.267V47.8636H386.017V49H366.131ZM395.33 49V12.6364H405.984C408.02 12.6364 409.819 13.0684 411.381 13.9325C412.956 14.7966 414.187 16.004 415.075 17.5547C415.974 19.1054 416.424 20.9223 416.424 23.0057C416.424 25.0653 415.974 26.8705 415.075 28.4212C414.187 29.96 412.956 31.1615 411.381 32.0256C409.819 32.8778 408.02 33.304 405.984 33.304H395.898V32.1676H405.984C407.807 32.1676 409.416 31.7888 410.813 31.0312C412.21 30.2737 413.305 29.2083 414.098 27.8352C414.891 26.4621 415.288 24.8523 415.288 23.0057C415.288 21.1473 414.891 19.5256 414.098 18.1406C413.305 16.7557 412.21 15.6844 410.813 14.9268C409.416 14.1574 407.807 13.7727 405.984 13.7727H396.467V49H395.33ZM409.18 32.4517L418.129 49H416.85L407.901 32.4517H409.18ZM422.714 12.6364L435.214 47.5795H435.356L447.856 12.6364H449.063L436.066 49H434.504L421.507 12.6364H422.714ZM457.502 12.6364V49H456.365V12.6364H457.502ZM495.783 24H494.576C494.351 22.7926 493.913 21.5616 493.262 20.3068C492.611 19.0521 491.747 17.892 490.669 16.8267C489.592 15.7614 488.32 14.9032 486.852 14.2521C485.384 13.6011 483.721 13.2756 481.863 13.2756C479.377 13.2756 477.074 13.9562 474.956 15.3175C472.849 16.6669 471.15 18.6496 469.86 21.2656C468.581 23.8698 467.942 27.054 467.942 30.8182C467.942 34.6297 468.581 37.8376 469.86 40.4418C471.15 43.0459 472.849 45.0168 474.956 46.3544C477.074 47.692 479.377 48.3608 481.863 48.3608C483.721 48.3608 485.384 48.0412 486.852 47.402C488.32 46.7509 489.592 45.8987 490.669 44.8452C491.747 43.7798 492.611 42.6198 493.262 41.3651C493.913 40.0985 494.351 38.8556 494.576 37.6364H495.783C495.558 38.9148 495.108 40.2464 494.434 41.6314C493.759 43.0045 492.847 44.2888 491.699 45.4844C490.551 46.6799 489.16 47.6506 487.527 48.3963C485.893 49.1302 484.005 49.4972 481.863 49.4972C478.88 49.4972 476.258 48.7159 473.997 47.1534C471.736 45.5909 469.972 43.407 468.706 40.6016C467.439 37.7962 466.806 34.535 466.806 30.8182C466.806 27.1013 467.439 23.8402 468.706 21.0348C469.972 18.2294 471.736 16.0455 473.997 14.483C476.258 12.9205 478.88 12.1392 481.863 12.1392C484.005 12.1392 485.893 12.5062 487.527 13.2401C489.16 13.974 490.551 14.9387 491.699 16.1342C492.847 17.3179 493.759 18.6023 494.434 19.9872C495.108 21.3603 495.558 22.6979 495.783 24ZM504.998 49V12.6364H524.387V13.7727H506.135V30.25H523.322V31.3864H506.135V47.8636H524.885V49H504.998Z" fill="white"/>
<path d="M282.527 10H291.555L283.53 49H274L282.527 10Z" fill="#FECC01"/>
<path d="M299.581 10H308.609L300.584 49H291.054L299.581 10Z" fill="#FECC01"/>
<path d="M316.634 10H325.663L317.637 49H308.107L316.634 10Z" fill="#FECC01"/>
</svg>
