<svg width="32" height="32" viewBox="0 0 32 32" fill="none" xmlns="http://www.w3.org/2000/svg">
<path d="M15.25 12.6899V21.9999C15.25 22.1988 15.329 22.3896 15.4697 22.5303C15.6103 22.6709 15.8011 22.7499 16 22.7499C16.1989 22.7499 16.3897 22.6709 16.5303 22.5303C16.671 22.3896 16.75 22.1988 16.75 21.9999V12.6899C17.9297 12.5013 18.9949 11.8751 19.7335 10.9361C20.4721 9.99706 20.8297 8.81424 20.7351 7.62333C20.6405 6.43242 20.1006 5.3209 19.223 4.51029C18.3455 3.69968 17.1947 3.24951 16 3.24951C14.8053 3.24951 13.6546 3.69968 12.777 4.51029C11.8994 5.3209 11.3595 6.43242 11.2649 7.62333C11.1703 8.81424 11.5279 9.99706 12.2665 10.9361C13.0051 11.8751 14.0703 12.5013 15.25 12.6899ZM16 4.74993C16.6428 4.74993 17.2711 4.94054 17.8056 5.29765C18.3401 5.65477 18.7566 6.16235 19.0026 6.75621C19.2486 7.35007 19.313 8.00353 19.1876 8.63397C19.0621 9.26441 18.7526 9.8435 18.2981 10.298C17.8436 10.7525 17.2645 11.0621 16.634 11.1875C16.0036 11.3129 15.3501 11.2485 14.7563 11.0025C14.1624 10.7566 13.6548 10.34 13.2977 9.80553C12.9406 9.27107 12.75 8.64272 12.75 7.99993C12.75 7.13797 13.0924 6.31132 13.7019 5.70183C14.3114 5.09234 15.138 4.74993 16 4.74993ZM29.75 21.9999C29.75 23.6674 28.2275 25.1724 25.4613 26.2349C22.9225 27.2124 19.5625 27.7499 16 27.7499C12.4375 27.7499 9.0775 27.2124 6.53875 26.2349C3.7725 25.1724 2.25 23.6674 2.25 21.9999C2.25 19.5499 5.5575 17.4999 10.8813 16.6424C11.0778 16.6101 11.2792 16.6572 11.4411 16.7734C11.603 16.8895 11.7121 17.0652 11.7444 17.2618C11.7767 17.4584 11.7296 17.6598 11.6134 17.8216C11.4973 17.9835 11.3216 18.0926 11.125 18.1249C8.875 18.4862 6.96625 19.0824 5.61375 19.8474C4.41 20.5249 3.75 21.2899 3.75 21.9999C3.75 24.0099 8.78125 26.2499 16 26.2499C23.2188 26.2499 28.25 24.0099 28.25 21.9999C28.25 21.2899 27.59 20.5249 26.3925 19.8462C25.04 19.0812 23.1338 18.4849 20.8813 18.1237C20.6848 18.0922 20.509 17.9839 20.3923 17.8228C20.2757 17.6616 20.2279 17.4607 20.2594 17.2643C20.2909 17.0679 20.3991 16.892 20.5603 16.7754C20.7214 16.6588 20.9223 16.6109 21.1187 16.6424C26.4425 17.4999 29.75 19.5499 29.75 21.9999Z" fill="#FECC01"/>
</svg>
