<svg width="32" height="32" viewBox="0 0 32 32" fill="none" xmlns="http://www.w3.org/2000/svg">
<path d="M25.5303 25.4701C25.604 25.5388 25.6631 25.6216 25.7041 25.7136C25.7451 25.8056 25.7671 25.9049 25.7689 26.0056C25.7707 26.1063 25.7522 26.2063 25.7144 26.2997C25.6767 26.3931 25.6206 26.4779 25.5494 26.5491C25.4781 26.6203 25.3933 26.6765 25.2999 26.7142C25.2065 26.7519 25.1065 26.7705 25.0058 26.7687C24.9051 26.7669 24.8058 26.7449 24.7138 26.7039C24.6218 26.6629 24.539 26.6038 24.4703 26.5301L14.4703 16.5301C14.3299 16.3895 14.251 16.1988 14.251 16.0001C14.251 15.8013 14.3299 15.6107 14.4703 15.4701L24.4703 5.47009C24.6125 5.33761 24.8005 5.26549 24.9948 5.26892C25.1891 5.27234 25.3745 5.35106 25.5119 5.48847C25.6494 5.62588 25.7281 5.81127 25.7315 6.00557C25.7349 6.19987 25.6628 6.38792 25.5303 6.53009L16.0616 16.0001L25.5303 25.4701ZM6.06157 16.0001L15.5303 6.53009C15.6628 6.38792 15.7349 6.19987 15.7315 6.00557C15.7281 5.81127 15.6494 5.62588 15.5119 5.48847C15.3745 5.35106 15.1891 5.27234 14.9948 5.26892C14.8005 5.26549 14.6125 5.33761 14.4703 5.47009L4.47032 15.4701C4.32987 15.6107 4.25098 15.8013 4.25098 16.0001C4.25098 16.1988 4.32987 16.3895 4.47032 16.5301L14.4703 26.5301C14.539 26.6038 14.6218 26.6629 14.7138 26.7039C14.8058 26.7449 14.9051 26.7669 15.0058 26.7687C15.1065 26.7705 15.2065 26.7519 15.2999 26.7142C15.3933 26.6765 15.4781 26.6203 15.5494 26.5491C15.6206 26.4779 15.6767 26.3931 15.7144 26.2997C15.7522 26.2063 15.7707 26.1063 15.7689 26.0056C15.7671 25.9049 15.7451 25.8056 15.7041 25.7136C15.6631 25.6216 15.604 25.5388 15.5303 25.4701L6.06157 16.0001Z" fill="#FECC01"/>
</svg>
